<?xml version="1.0" encoding="UTF-8" standalone="no"?>
<!DOCTYPE svg PUBLIC "-//W3C//DTD SVG 1.1//EN"
 "http://www.w3.org/Graphics/SVG/1.1/DTD/svg11.dtd">
<!-- Generated by graphviz version 2.42.4 (0)
 -->
<!-- Pages: 1 -->
<svg width="1401pt" height="860pt"
 viewBox="0.00 0.00 1400.75 860.12" xmlns="http://www.w3.org/2000/svg" xmlns:xlink="http://www.w3.org/1999/xlink">
<g id="graph0" class="graph" transform="scale(1 1) rotate(0) translate(4 856.12)">
<polygon fill="white" stroke="transparent" points="-4,4 -4,-856.12 1396.75,-856.12 1396.75,4 -4,4"/>
<!-- Attacchi\nalla\nsicurezza -->
<g id="node1" class="node">
<title>Attacchi\nalla\nsicurezza</title>
<ellipse fill="#ff3333" stroke="#ffffff" cx="420.62" cy="-395.25" rx="50.41" ry="33.47"/>
<text text-anchor="middle" x="420.62" y="-405.15" font-family="Helvetica,sans-Serif" font-size="12.00">Attacchi</text>
<text text-anchor="middle" x="420.62" y="-392.15" font-family="Helvetica,sans-Serif" font-size="12.00">alla</text>
<text text-anchor="middle" x="420.62" y="-379.15" font-family="Helvetica,sans-Serif" font-size="12.00">sicurezza</text>
</g>
<!-- Meccanismo\ndi\nsicurezza -->
<g id="node2" class="node">
<title>Meccanismo\ndi\nsicurezza</title>
<ellipse fill="#ff3333" stroke="#ffffff" cx="609.34" cy="-514.18" rx="65.11" ry="33.47"/>
<text text-anchor="middle" x="609.34" y="-524.08" font-family="Helvetica,sans-Serif" font-size="12.00">Meccanismo</text>
<text text-anchor="middle" x="609.34" y="-511.08" font-family="Helvetica,sans-Serif" font-size="12.00">di</text>
<text text-anchor="middle" x="609.34" y="-498.08" font-family="Helvetica,sans-Serif" font-size="12.00">sicurezza</text>
</g>
<!-- Meccanismo\ndi\nsicurezza&#45;&gt;Attacchi\nalla\nsicurezza -->
<g id="edge1" class="edge">
<title>Meccanismo\ndi\nsicurezza&#45;&gt;Attacchi\nalla\nsicurezza</title>
<path fill="none" stroke="#5a5a5a" stroke-width="1.2" d="M567.93,-488.08C537.68,-469.02 496.69,-443.19 465.64,-423.62"/>
<polygon fill="#5a5a5a" stroke="#5a5a5a" stroke-width="1.2" points="467.48,-420.65 457.16,-418.28 463.75,-426.57 467.48,-420.65"/>
<text text-anchor="middle" x="559.28" y="-459.65" font-family="Times,serif" font-size="14.00">previene da</text>
</g>
<!-- Controllo\ndegli\naccessi -->
<g id="node5" class="node">
<title>Controllo\ndegli\naccessi</title>
<ellipse fill="lightgreen" stroke="#ffffff" cx="389.68" cy="-576.76" rx="49.49" ry="33.47"/>
<text text-anchor="middle" x="389.68" y="-586.66" font-family="Helvetica,sans-Serif" font-size="12.00">Controllo</text>
<text text-anchor="middle" x="389.68" y="-573.66" font-family="Helvetica,sans-Serif" font-size="12.00">degli</text>
<text text-anchor="middle" x="389.68" y="-560.66" font-family="Helvetica,sans-Serif" font-size="12.00">accessi</text>
</g>
<!-- Meccanismo\ndi\nsicurezza&#45;&gt;Controllo\ndegli\naccessi -->
<g id="edge9" class="edge">
<title>Meccanismo\ndi\nsicurezza&#45;&gt;Controllo\ndegli\naccessi</title>
<path fill="none" stroke="#5a5a5a" stroke-width="1.2" d="M552.49,-530.38C519.54,-539.76 478.23,-551.53 445.47,-560.87"/>
<polygon fill="#5a5a5a" stroke="#5a5a5a" stroke-width="1.2" points="444.25,-557.58 435.59,-563.68 446.17,-564.31 444.25,-557.58"/>
</g>
<!-- Integrità\ndei\ndati -->
<g id="node7" class="node">
<title>Integrità\ndei\ndati</title>
<ellipse fill="lightgreen" stroke="#ffffff" cx="418.41" cy="-487.05" rx="48.17" ry="33.47"/>
<text text-anchor="middle" x="418.41" y="-496.95" font-family="Helvetica,sans-Serif" font-size="12.00">Integrità</text>
<text text-anchor="middle" x="418.41" y="-483.95" font-family="Helvetica,sans-Serif" font-size="12.00">dei</text>
<text text-anchor="middle" x="418.41" y="-470.95" font-family="Helvetica,sans-Serif" font-size="12.00">dati</text>
</g>
<!-- Meccanismo\ndi\nsicurezza&#45;&gt;Integrità\ndei\ndati -->
<g id="edge10" class="edge">
<title>Meccanismo\ndi\nsicurezza&#45;&gt;Integrità\ndei\ndati</title>
<path fill="none" stroke="#5a5a5a" stroke-width="1.2" d="M546.56,-505.26C523.75,-502.02 498.11,-498.37 475.79,-495.2"/>
<polygon fill="#5a5a5a" stroke="#5a5a5a" stroke-width="1.2" points="476.18,-491.72 465.79,-493.78 475.2,-498.65 476.18,-491.72"/>
</g>
<!-- Algoritmi\ncrittografici -->
<g id="node10" class="node">
<title>Algoritmi\ncrittografici</title>
<ellipse fill="lightgreen" stroke="#ffffff" cx="907.69" cy="-433.77" rx="60.62" ry="24.08"/>
<text text-anchor="middle" x="907.69" y="-437.17" font-family="Helvetica,sans-Serif" font-size="12.00">Algoritmi</text>
<text text-anchor="middle" x="907.69" y="-424.17" font-family="Helvetica,sans-Serif" font-size="12.00">crittografici</text>
</g>
<!-- Meccanismo\ndi\nsicurezza&#45;&gt;Algoritmi\ncrittografici -->
<g id="edge11" class="edge">
<title>Meccanismo\ndi\nsicurezza&#45;&gt;Algoritmi\ncrittografici</title>
<path fill="none" stroke="#5a5a5a" stroke-width="1.2" d="M667.22,-498.58C719.12,-484.59 794.97,-464.15 847.55,-449.97"/>
<polygon fill="#5a5a5a" stroke="#5a5a5a" stroke-width="1.2" points="848.66,-453.3 857.41,-447.32 846.84,-446.54 848.66,-453.3"/>
</g>
<!-- Firma\ndigitale -->
<g id="node11" class="node">
<title>Firma\ndigitale</title>
<ellipse fill="lightgreen" stroke="#ffffff" cx="703.92" cy="-328.98" rx="42.35" ry="24.08"/>
<text text-anchor="middle" x="703.92" y="-332.38" font-family="Helvetica,sans-Serif" font-size="12.00">Firma</text>
<text text-anchor="middle" x="703.92" y="-319.38" font-family="Helvetica,sans-Serif" font-size="12.00">digitale</text>
</g>
<!-- Meccanismo\ndi\nsicurezza&#45;&gt;Firma\ndigitale -->
<g id="edge12" class="edge">
<title>Meccanismo\ndi\nsicurezza&#45;&gt;Firma\ndigitale</title>
<path fill="none" stroke="#5a5a5a" stroke-width="1.2" d="M625.82,-481.92C643.14,-448.01 670.22,-394.97 687.52,-361.11"/>
<polygon fill="#5a5a5a" stroke="#5a5a5a" stroke-width="1.2" points="690.69,-362.59 692.12,-352.1 684.45,-359.41 690.69,-362.59"/>
</g>
<!-- Scambio\ndi\nautenticazione -->
<g id="node12" class="node">
<title>Scambio\ndi\nautenticazione</title>
<ellipse fill="lightgreen" stroke="#ffffff" cx="520.25" cy="-662.75" rx="73.58" ry="33.47"/>
<text text-anchor="middle" x="520.25" y="-672.65" font-family="Helvetica,sans-Serif" font-size="12.00">Scambio</text>
<text text-anchor="middle" x="520.25" y="-659.65" font-family="Helvetica,sans-Serif" font-size="12.00">di</text>
<text text-anchor="middle" x="520.25" y="-646.65" font-family="Helvetica,sans-Serif" font-size="12.00">autenticazione</text>
</g>
<!-- Meccanismo\ndi\nsicurezza&#45;&gt;Scambio\ndi\nautenticazione -->
<g id="edge13" class="edge">
<title>Meccanismo\ndi\nsicurezza&#45;&gt;Scambio\ndi\nautenticazione</title>
<path fill="none" stroke="#5a5a5a" stroke-width="1.2" d="M590.23,-546.05C576.99,-568.13 559.25,-597.72 544.94,-621.58"/>
<polygon fill="#5a5a5a" stroke="#5a5a5a" stroke-width="1.2" points="541.78,-620.04 539.64,-630.42 547.79,-623.64 541.78,-620.04"/>
</g>
<!-- Padding\ndel\ntraffico -->
<g id="node13" class="node">
<title>Padding\ndel\ntraffico</title>
<ellipse fill="lightgreen" stroke="#ffffff" cx="628.19" cy="-713.54" rx="45.01" ry="33.47"/>
<text text-anchor="middle" x="628.19" y="-723.44" font-family="Helvetica,sans-Serif" font-size="12.00">Padding</text>
<text text-anchor="middle" x="628.19" y="-710.44" font-family="Helvetica,sans-Serif" font-size="12.00">del</text>
<text text-anchor="middle" x="628.19" y="-697.44" font-family="Helvetica,sans-Serif" font-size="12.00">traffico</text>
</g>
<!-- Meccanismo\ndi\nsicurezza&#45;&gt;Padding\ndel\ntraffico -->
<g id="edge14" class="edge">
<title>Meccanismo\ndi\nsicurezza&#45;&gt;Padding\ndel\ntraffico</title>
<path fill="none" stroke="#5a5a5a" stroke-width="1.2" d="M612.5,-547.55C615.68,-581.19 620.6,-633.27 624.08,-670.11"/>
<polygon fill="#5a5a5a" stroke="#5a5a5a" stroke-width="1.2" points="620.6,-670.44 625.03,-680.07 627.57,-669.78 620.6,-670.44"/>
</g>
<!-- Controllo\ndel\nrouting -->
<g id="node14" class="node">
<title>Controllo\ndel\nrouting</title>
<ellipse fill="lightgreen" stroke="#ffffff" cx="730.42" cy="-638.55" rx="49.49" ry="33.47"/>
<text text-anchor="middle" x="730.42" y="-648.45" font-family="Helvetica,sans-Serif" font-size="12.00">Controllo</text>
<text text-anchor="middle" x="730.42" y="-635.45" font-family="Helvetica,sans-Serif" font-size="12.00">del</text>
<text text-anchor="middle" x="730.42" y="-622.45" font-family="Helvetica,sans-Serif" font-size="12.00">routing</text>
</g>
<!-- Meccanismo\ndi\nsicurezza&#45;&gt;Controllo\ndel\nrouting -->
<g id="edge15" class="edge">
<title>Meccanismo\ndi\nsicurezza&#45;&gt;Controllo\ndel\nrouting</title>
<path fill="none" stroke="#5a5a5a" stroke-width="1.2" d="M638.34,-543.97C655.76,-561.86 678.01,-584.71 696.27,-603.47"/>
<polygon fill="#5a5a5a" stroke="#5a5a5a" stroke-width="1.2" points="693.83,-605.98 703.31,-610.71 698.85,-601.1 693.83,-605.98"/>
</g>
<!-- Notarizzazione -->
<g id="node15" class="node">
<title>Notarizzazione</title>
<ellipse fill="lightgreen" stroke="#ffffff" cx="731.94" cy="-492.41" rx="64.04" ry="18"/>
<text text-anchor="middle" x="731.94" y="-489.31" font-family="Helvetica,sans-Serif" font-size="12.00">Notarizzazione</text>
</g>
<!-- Meccanismo\ndi\nsicurezza&#45;&gt;Notarizzazione -->
<g id="edge16" class="edge">
<title>Meccanismo\ndi\nsicurezza&#45;&gt;Notarizzazione</title>
<path fill="none" stroke="#5a5a5a" stroke-width="1.2" d="M671,-503.23C671.14,-503.21 671.28,-503.18 671.43,-503.16"/>
<polygon fill="#5a5a5a" stroke="#5a5a5a" stroke-width="1.2" points="668.55,-507.22 677.78,-502.03 667.33,-500.33 668.55,-507.22"/>
</g>
<!-- Servizio\ndi\nsicurezza -->
<g id="node3" class="node">
<title>Servizio\ndi\nsicurezza</title>
<ellipse fill="#ff3333" stroke="#ffffff" cx="234.34" cy="-471.57" rx="50.41" ry="33.47"/>
<text text-anchor="middle" x="234.34" y="-481.47" font-family="Helvetica,sans-Serif" font-size="12.00">Servizio</text>
<text text-anchor="middle" x="234.34" y="-468.47" font-family="Helvetica,sans-Serif" font-size="12.00">di</text>
<text text-anchor="middle" x="234.34" y="-455.47" font-family="Helvetica,sans-Serif" font-size="12.00">sicurezza</text>
</g>
<!-- Servizio\ndi\nsicurezza&#45;&gt;Attacchi\nalla\nsicurezza -->
<g id="edge2" class="edge">
<title>Servizio\ndi\nsicurezza&#45;&gt;Attacchi\nalla\nsicurezza</title>
<path fill="none" stroke="#5a5a5a" stroke-width="1.2" d="M277.08,-454.06C304.19,-442.95 339.47,-428.5 368.27,-416.7"/>
<polygon fill="#5a5a5a" stroke="#5a5a5a" stroke-width="1.2" points="369.83,-419.84 377.76,-412.81 367.18,-413.37 369.83,-419.84"/>
<text text-anchor="middle" x="288.67" y="-424.18" font-family="Times,serif" font-size="14.00">contrasta</text>
</g>
<!-- Autenticazione -->
<g id="node4" class="node">
<title>Autenticazione</title>
<ellipse fill="lightgreen" stroke="#ffffff" cx="68.25" cy="-389.95" rx="64.77" ry="18"/>
<text text-anchor="middle" x="68.25" y="-386.85" font-family="Helvetica,sans-Serif" font-size="12.00">Autenticazione</text>
</g>
<!-- Servizio\ndi\nsicurezza&#45;&gt;Autenticazione -->
<g id="edge3" class="edge">
<title>Servizio\ndi\nsicurezza&#45;&gt;Autenticazione</title>
<path fill="none" stroke="#5a5a5a" stroke-width="1.2" d="M193.71,-451.61C168.05,-439 135,-422.76 109.27,-410.11"/>
<polygon fill="#5a5a5a" stroke="#5a5a5a" stroke-width="1.2" points="110.67,-406.9 100.15,-405.63 107.58,-413.18 110.67,-406.9"/>
</g>
<!-- Servizio\ndi\nsicurezza&#45;&gt;Controllo\ndegli\naccessi -->
<g id="edge4" class="edge">
<title>Servizio\ndi\nsicurezza&#45;&gt;Controllo\ndegli\naccessi</title>
<path fill="none" stroke="#5a5a5a" stroke-width="1.2" d="M269.59,-495.44C292.33,-510.84 322.07,-530.98 346.27,-547.36"/>
<polygon fill="#5a5a5a" stroke="#5a5a5a" stroke-width="1.2" points="344.33,-550.28 354.57,-552.99 348.25,-544.48 344.33,-550.28"/>
</g>
<!-- Confidenzialità\ndei\ndati -->
<g id="node6" class="node">
<title>Confidenzialità\ndei\ndati</title>
<ellipse fill="lightgreen" stroke="#ffffff" cx="153.96" cy="-627.99" rx="73.58" ry="33.47"/>
<text text-anchor="middle" x="153.96" y="-637.89" font-family="Helvetica,sans-Serif" font-size="12.00">Confidenzialità</text>
<text text-anchor="middle" x="153.96" y="-624.89" font-family="Helvetica,sans-Serif" font-size="12.00">dei</text>
<text text-anchor="middle" x="153.96" y="-611.89" font-family="Helvetica,sans-Serif" font-size="12.00">dati</text>
</g>
<!-- Servizio\ndi\nsicurezza&#45;&gt;Confidenzialità\ndei\ndati -->
<g id="edge5" class="edge">
<title>Servizio\ndi\nsicurezza&#45;&gt;Confidenzialità\ndei\ndati</title>
<path fill="none" stroke="#5a5a5a" stroke-width="1.2" d="M218.07,-503.23C205.72,-527.26 188.63,-560.52 175.2,-586.66"/>
<polygon fill="#5a5a5a" stroke="#5a5a5a" stroke-width="1.2" points="172.08,-585.08 170.62,-595.58 178.3,-588.28 172.08,-585.08"/>
</g>
<!-- Servizio\ndi\nsicurezza&#45;&gt;Integrità\ndei\ndati -->
<g id="edge6" class="edge">
<title>Servizio\ndi\nsicurezza&#45;&gt;Integrità\ndei\ndati</title>
<path fill="none" stroke="#5a5a5a" stroke-width="1.2" d="M284.15,-475.76C307.63,-477.73 335.78,-480.1 360.23,-482.16"/>
<polygon fill="#5a5a5a" stroke="#5a5a5a" stroke-width="1.2" points="360.2,-485.66 370.46,-483.01 360.79,-478.69 360.2,-485.66"/>
</g>
<!-- Non\nripudio -->
<g id="node8" class="node">
<title>Non\nripudio</title>
<ellipse fill="lightgreen" stroke="#ffffff" cx="182.67" cy="-307.06" rx="41.02" ry="24.08"/>
<text text-anchor="middle" x="182.67" y="-310.46" font-family="Helvetica,sans-Serif" font-size="12.00">Non</text>
<text text-anchor="middle" x="182.67" y="-297.46" font-family="Helvetica,sans-Serif" font-size="12.00">ripudio</text>
</g>
<!-- Servizio\ndi\nsicurezza&#45;&gt;Non\nripudio -->
<g id="edge7" class="edge">
<title>Servizio\ndi\nsicurezza&#45;&gt;Non\nripudio</title>
<path fill="none" stroke="#5a5a5a" stroke-width="1.2" d="M224.01,-438.68C215.05,-410.16 202.15,-369.08 193.15,-340.43"/>
<polygon fill="#5a5a5a" stroke="#5a5a5a" stroke-width="1.2" points="196.48,-339.34 190.14,-330.85 189.8,-341.44 196.48,-339.34"/>
</g>
<!-- Servizio\ndi\navailability -->
<g id="node9" class="node">
<title>Servizio\ndi\navailability</title>
<ellipse fill="lightgreen" stroke="#ffffff" cx="56.57" cy="-526.52" rx="56.64" ry="33.47"/>
<text text-anchor="middle" x="56.57" y="-536.42" font-family="Helvetica,sans-Serif" font-size="12.00">Servizio</text>
<text text-anchor="middle" x="56.57" y="-523.42" font-family="Helvetica,sans-Serif" font-size="12.00">di</text>
<text text-anchor="middle" x="56.57" y="-510.42" font-family="Helvetica,sans-Serif" font-size="12.00">availability</text>
</g>
<!-- Servizio\ndi\nsicurezza&#45;&gt;Servizio\ndi\navailability -->
<g id="edge8" class="edge">
<title>Servizio\ndi\nsicurezza&#45;&gt;Servizio\ndi\navailability</title>
<path fill="none" stroke="#5a5a5a" stroke-width="1.2" d="M188.56,-485.72C166.68,-492.48 140.22,-500.67 116.74,-507.92"/>
<polygon fill="#5a5a5a" stroke="#5a5a5a" stroke-width="1.2" points="115.4,-504.67 106.88,-510.97 117.47,-511.36 115.4,-504.67"/>
</g>
<!-- Keyless -->
<g id="node16" class="node">
<title>Keyless</title>
<ellipse fill="lightgreen" stroke="#ffffff" cx="1127.88" cy="-353.2" rx="37.6" ry="18"/>
<text text-anchor="middle" x="1127.88" y="-350.1" font-family="Helvetica,sans-Serif" font-size="12.00">Keyless</text>
</g>
<!-- Algoritmi\ncrittografici&#45;&gt;Keyless -->
<g id="edge17" class="edge">
<title>Algoritmi\ncrittografici&#45;&gt;Keyless</title>
<path fill="none" stroke="#5a5a5a" stroke-width="1.2" d="M952.51,-417.36C992.34,-402.79 1049.99,-381.7 1088.18,-367.73"/>
<polygon fill="#5a5a5a" stroke="#5a5a5a" stroke-width="1.2" points="1089.74,-370.88 1097.93,-364.16 1087.34,-364.31 1089.74,-370.88"/>
</g>
<!-- A chiave\nsingola -->
<g id="node17" class="node">
<title>A chiave\nsingola</title>
<ellipse fill="lightgreen" stroke="#ffffff" cx="1076.48" cy="-617.78" rx="48.17" ry="24.08"/>
<text text-anchor="middle" x="1076.48" y="-621.18" font-family="Helvetica,sans-Serif" font-size="12.00">A chiave</text>
<text text-anchor="middle" x="1076.48" y="-608.18" font-family="Helvetica,sans-Serif" font-size="12.00">singola</text>
</g>
<!-- Algoritmi\ncrittografici&#45;&gt;A chiave\nsingola -->
<g id="edge18" class="edge">
<title>Algoritmi\ncrittografici&#45;&gt;A chiave\nsingola</title>
<path fill="none" stroke="#5a5a5a" stroke-width="1.2" d="M928.72,-456.7C959.25,-489.98 1015.84,-551.68 1049.43,-588.3"/>
<polygon fill="#5a5a5a" stroke="#5a5a5a" stroke-width="1.2" points="1046.89,-590.71 1056.23,-595.71 1052.05,-585.98 1046.89,-590.71"/>
</g>
<!-- A doppia\nchiave -->
<g id="node18" class="node">
<title>A doppia\nchiave</title>
<ellipse fill="lightgreen" stroke="#ffffff" cx="843.63" cy="-207.43" rx="48.58" ry="24.08"/>
<text text-anchor="middle" x="843.63" y="-210.83" font-family="Helvetica,sans-Serif" font-size="12.00">A doppia</text>
<text text-anchor="middle" x="843.63" y="-197.83" font-family="Helvetica,sans-Serif" font-size="12.00">chiave</text>
</g>
<!-- Algoritmi\ncrittografici&#45;&gt;A doppia\nchiave -->
<g id="edge19" class="edge">
<title>Algoritmi\ncrittografici&#45;&gt;A doppia\nchiave</title>
<path fill="none" stroke="#5a5a5a" stroke-width="1.2" d="M900.83,-409.54C889.37,-369.04 866.29,-287.49 853.22,-241.31"/>
<polygon fill="#5a5a5a" stroke="#5a5a5a" stroke-width="1.2" points="856.52,-240.15 850.43,-231.48 849.79,-242.05 856.52,-240.15"/>
</g>
<!-- Funzioni crittografiche\ndi hash -->
<g id="node19" class="node">
<title>Funzioni crittografiche\ndi hash</title>
<ellipse fill="lightgreen" stroke="#ffffff" cx="1238.26" cy="-227.17" rx="105.22" ry="24.08"/>
<text text-anchor="middle" x="1238.26" y="-230.57" font-family="Helvetica,sans-Serif" font-size="12.00">Funzioni crittografiche</text>
<text text-anchor="middle" x="1238.26" y="-217.57" font-family="Helvetica,sans-Serif" font-size="12.00">di hash</text>
</g>
<!-- Keyless&#45;&gt;Funzioni crittografiche\ndi hash -->
<g id="edge20" class="edge">
<title>Keyless&#45;&gt;Funzioni crittografiche\ndi hash</title>
<path fill="none" stroke="#5a5a5a" stroke-width="1.2" d="M1142.54,-336.46C1159.9,-316.65 1189.17,-283.22 1210.79,-258.54"/>
<polygon fill="#5a5a5a" stroke="#5a5a5a" stroke-width="1.2" points="1213.55,-260.69 1217.51,-250.86 1208.29,-256.08 1213.55,-260.69"/>
</g>
<!-- Generatori di numeri\npseudocasuali -->
<g id="node20" class="node">
<title>Generatori di numeri\npseudocasuali</title>
<ellipse fill="lightgreen" stroke="#ffffff" cx="1292.34" cy="-375.75" rx="100.32" ry="24.08"/>
<text text-anchor="middle" x="1292.34" y="-379.15" font-family="Helvetica,sans-Serif" font-size="12.00">Generatori di numeri</text>
<text text-anchor="middle" x="1292.34" y="-366.15" font-family="Helvetica,sans-Serif" font-size="12.00">pseudocasuali</text>
</g>
<!-- Keyless&#45;&gt;Generatori di numeri\npseudocasuali -->
<g id="edge21" class="edge">
<title>Keyless&#45;&gt;Generatori di numeri\npseudocasuali</title>
<path fill="none" stroke="#5a5a5a" stroke-width="1.2" d="M1164.38,-358.2C1173.73,-359.48 1184.23,-360.92 1195.09,-362.41"/>
<polygon fill="#5a5a5a" stroke="#5a5a5a" stroke-width="1.2" points="1194.77,-365.9 1205.15,-363.79 1195.72,-358.97 1194.77,-365.9"/>
</g>
<!-- Cifrari\na blocco -->
<g id="node21" class="node">
<title>Cifrari\na blocco</title>
<ellipse fill="lightgreen" stroke="#ffffff" cx="1140.05" cy="-784.3" rx="47.25" ry="24.08"/>
<text text-anchor="middle" x="1140.05" y="-787.7" font-family="Helvetica,sans-Serif" font-size="12.00">Cifrari</text>
<text text-anchor="middle" x="1140.05" y="-774.7" font-family="Helvetica,sans-Serif" font-size="12.00">a blocco</text>
</g>
<!-- A chiave\nsingola&#45;&gt;Cifrari\na blocco -->
<g id="edge22" class="edge">
<title>A chiave\nsingola&#45;&gt;Cifrari\na blocco</title>
<path fill="none" stroke="#5a5a5a" stroke-width="1.2" d="M1085.58,-641.64C1096.54,-670.33 1114.98,-718.64 1127.33,-750.99"/>
<polygon fill="#5a5a5a" stroke="#5a5a5a" stroke-width="1.2" points="1124.12,-752.39 1130.96,-760.48 1130.66,-749.89 1124.12,-752.39"/>
</g>
<!-- Cifrari\ndi flusso -->
<g id="node22" class="node">
<title>Cifrari\ndi flusso</title>
<ellipse fill="lightgreen" stroke="#ffffff" cx="1238.12" cy="-692.45" rx="45.92" ry="24.08"/>
<text text-anchor="middle" x="1238.12" y="-695.85" font-family="Helvetica,sans-Serif" font-size="12.00">Cifrari</text>
<text text-anchor="middle" x="1238.12" y="-682.85" font-family="Helvetica,sans-Serif" font-size="12.00">di flusso</text>
</g>
<!-- A chiave\nsingola&#45;&gt;Cifrari\ndi flusso -->
<g id="edge23" class="edge">
<title>A chiave\nsingola&#45;&gt;Cifrari\ndi flusso</title>
<path fill="none" stroke="#5a5a5a" stroke-width="1.2" d="M1111.95,-634.17C1136.2,-645.37 1168.51,-660.3 1194.36,-672.24"/>
<polygon fill="#5a5a5a" stroke="#5a5a5a" stroke-width="1.2" points="1193.02,-675.47 1203.57,-676.49 1195.95,-669.12 1193.02,-675.47"/>
</g>
<!-- A doppia\nchiave&#45;&gt;Firma\ndigitale -->
<g id="edge26" class="edge">
<title>A doppia\nchiave&#45;&gt;Firma\ndigitale</title>
<path fill="none" stroke="#5a5a5a" stroke-width="1.2" d="M819.29,-228.6C795.91,-248.94 760.49,-279.77 735.06,-301.89"/>
<polygon fill="#5a5a5a" stroke="#5a5a5a" stroke-width="1.2" points="732.76,-299.25 727.51,-308.46 737.36,-304.53 732.76,-299.25"/>
</g>
<!-- Cifratura\nasimmetrica -->
<g id="node24" class="node">
<title>Cifratura\nasimmetrica</title>
<ellipse fill="lightgreen" stroke="#ffffff" cx="733.25" cy="-80.39" rx="65.11" ry="24.08"/>
<text text-anchor="middle" x="733.25" y="-83.79" font-family="Helvetica,sans-Serif" font-size="12.00">Cifratura</text>
<text text-anchor="middle" x="733.25" y="-70.79" font-family="Helvetica,sans-Serif" font-size="12.00">asimmetrica</text>
</g>
<!-- A doppia\nchiave&#45;&gt;Cifratura\nasimmetrica -->
<g id="edge27" class="edge">
<title>A doppia\nchiave&#45;&gt;Cifratura\nasimmetrica</title>
<path fill="none" stroke="#5a5a5a" stroke-width="1.2" d="M824.4,-185.3C806.61,-164.82 779.99,-134.18 760.1,-111.29"/>
<polygon fill="#5a5a5a" stroke="#5a5a5a" stroke-width="1.2" points="762.57,-108.8 753.37,-103.55 757.29,-113.39 762.57,-108.8"/>
</g>
<!-- Scambio di\nchiavi -->
<g id="node25" class="node">
<title>Scambio di\nchiavi</title>
<ellipse fill="lightgreen" stroke="#ffffff" cx="866.34" cy="-24.04" rx="58.88" ry="24.08"/>
<text text-anchor="middle" x="866.34" y="-27.44" font-family="Helvetica,sans-Serif" font-size="12.00">Scambio di</text>
<text text-anchor="middle" x="866.34" y="-14.44" font-family="Helvetica,sans-Serif" font-size="12.00">chiavi</text>
</g>
<!-- A doppia\nchiave&#45;&gt;Scambio di\nchiavi -->
<g id="edge28" class="edge">
<title>A doppia\nchiave&#45;&gt;Scambio di\nchiavi</title>
<path fill="none" stroke="#5a5a5a" stroke-width="1.2" d="M846.64,-183.08C850.61,-151.06 857.6,-94.64 862.1,-58.33"/>
<polygon fill="#5a5a5a" stroke="#5a5a5a" stroke-width="1.2" points="865.59,-58.56 863.35,-48.2 858.65,-57.7 865.59,-58.56"/>
</g>
<!-- Autenticazione\nutente -->
<g id="node26" class="node">
<title>Autenticazione\nutente</title>
<ellipse fill="lightgreen" stroke="#ffffff" cx="977.75" cy="-113.97" rx="74.49" ry="24.08"/>
<text text-anchor="middle" x="977.75" y="-117.37" font-family="Helvetica,sans-Serif" font-size="12.00">Autenticazione</text>
<text text-anchor="middle" x="977.75" y="-104.37" font-family="Helvetica,sans-Serif" font-size="12.00">utente</text>
</g>
<!-- A doppia\nchiave&#45;&gt;Autenticazione\nutente -->
<g id="edge29" class="edge">
<title>A doppia\nchiave&#45;&gt;Autenticazione\nutente</title>
<path fill="none" stroke="#5a5a5a" stroke-width="1.2" d="M872.07,-187.61C891.13,-174.33 916.5,-156.65 937.6,-141.94"/>
<polygon fill="#5a5a5a" stroke="#5a5a5a" stroke-width="1.2" points="939.85,-144.64 946.06,-136.05 935.85,-138.9 939.85,-144.64"/>
</g>
<!-- Cifratura\nsimmetrica -->
<g id="node23" class="node">
<title>Cifratura\nsimmetrica</title>
<ellipse fill="lightgreen" stroke="#ffffff" cx="1274.26" cy="-828.08" rx="59.29" ry="24.08"/>
<text text-anchor="middle" x="1274.26" y="-831.48" font-family="Helvetica,sans-Serif" font-size="12.00">Cifratura</text>
<text text-anchor="middle" x="1274.26" y="-818.48" font-family="Helvetica,sans-Serif" font-size="12.00">simmetrica</text>
</g>
<!-- Cifrari\na blocco&#45;&gt;Cifratura\nsimmetrica -->
<g id="edge24" class="edge">
<title>Cifrari\na blocco&#45;&gt;Cifratura\nsimmetrica</title>
<path fill="none" stroke="#5a5a5a" stroke-width="1.2" d="M1179.95,-797.31C1191.9,-801.21 1205.23,-805.56 1218.02,-809.73"/>
<polygon fill="#5a5a5a" stroke="#5a5a5a" stroke-width="1.2" points="1217.07,-813.1 1227.66,-812.88 1219.24,-806.45 1217.07,-813.1"/>
</g>
<!-- Cifrari\ndi flusso&#45;&gt;Cifratura\nsimmetrica -->
<g id="edge25" class="edge">
<title>Cifrari\ndi flusso&#45;&gt;Cifratura\nsimmetrica</title>
<path fill="none" stroke="#5a5a5a" stroke-width="1.2" d="M1244.5,-716.39C1250.25,-737.95 1258.75,-769.88 1265.2,-794.08"/>
<polygon fill="#5a5a5a" stroke="#5a5a5a" stroke-width="1.2" points="1261.87,-795.17 1267.83,-803.93 1268.63,-793.37 1261.87,-795.17"/>
</g>
</g>
</svg>
