<?xml version="1.0" encoding="UTF-8" standalone="no"?>
<!DOCTYPE svg PUBLIC "-//W3C//DTD SVG 1.1//EN"
 "http://www.w3.org/Graphics/SVG/1.1/DTD/svg11.dtd">
<!-- Generated by graphviz version 2.42.4 (0)
 -->
<!-- Pages: 1 -->
<svg width="695pt" height="290pt"
 viewBox="0.00 0.00 695.42 290.47" xmlns="http://www.w3.org/2000/svg" xmlns:xlink="http://www.w3.org/1999/xlink">
<g id="graph0" class="graph" transform="scale(1 1) rotate(0) translate(4 286.47)">
<polygon fill="white" stroke="transparent" points="-4,4 -4,-286.47 691.42,-286.47 691.42,4 -4,4"/>
<!-- Obbiettivi\n della\n cybersecurity -->
<g id="node1" class="node">
<title>Obbiettivi\n della\n cybersecurity</title>
<ellipse fill="#a3c4f3" stroke="#ffffff" cx="217.25" cy="-249.23" rx="71.34" ry="33.47"/>
<text text-anchor="middle" x="217.25" y="-259.13" font-family="Helvetica,sans-Serif" font-size="12.00">Obbiettivi</text>
<text text-anchor="middle" x="217.25" y="-246.13" font-family="Helvetica,sans-Serif" font-size="12.00"> della</text>
<text text-anchor="middle" x="217.25" y="-233.13" font-family="Helvetica,sans-Serif" font-size="12.00"> cybersecurity</text>
</g>
<!-- Availability -->
<g id="node2" class="node">
<title>Availability</title>
<ellipse fill="#a3c4f3" stroke="#ffffff" cx="49.25" cy="-162" rx="49.5" ry="18"/>
<text text-anchor="middle" x="49.25" y="-158.9" font-family="Helvetica,sans-Serif" font-size="12.00">Availability</text>
</g>
<!-- Obbiettivi\n della\n cybersecurity&#45;&gt;Availability -->
<g id="edge1" class="edge">
<title>Obbiettivi\n della\n cybersecurity&#45;&gt;Availability</title>
<path fill="none" stroke="#5a5a5a" stroke-width="1.2" d="M170,-224.26C143.32,-210.73 110.49,-194.07 85.79,-181.54"/>
<polygon fill="#5a5a5a" stroke="#5a5a5a" stroke-width="1.2" points="87.26,-178.36 76.76,-176.96 84.09,-184.6 87.26,-178.36"/>
</g>
<!-- Authenticity -->
<g id="node3" class="node">
<title>Authenticity</title>
<ellipse fill="#a3c4f3" stroke="#ffffff" cx="63.25" cy="-90" rx="54.34" ry="18"/>
<text text-anchor="middle" x="63.25" y="-86.9" font-family="Helvetica,sans-Serif" font-size="12.00">Authenticity</text>
</g>
<!-- Obbiettivi\n della\n cybersecurity&#45;&gt;Authenticity -->
<g id="edge2" class="edge">
<title>Obbiettivi\n della\n cybersecurity&#45;&gt;Authenticity</title>
<path fill="none" stroke="#5a5a5a" stroke-width="1.2" d="M185.62,-219.13C172.89,-207.19 158.18,-193.12 145.25,-180 124.14,-158.59 101.01,-133.31 84.71,-115.18"/>
<polygon fill="#5a5a5a" stroke="#5a5a5a" stroke-width="1.2" points="87.02,-112.5 77.74,-107.39 81.8,-117.17 87.02,-112.5"/>
</g>
<!-- Confidentiality -->
<g id="node4" class="node">
<title>Confidentiality</title>
<ellipse fill="#a3c4f3" stroke="#ffffff" cx="217.25" cy="-162" rx="62.58" ry="18"/>
<text text-anchor="middle" x="217.25" y="-158.9" font-family="Helvetica,sans-Serif" font-size="12.00">Confidentiality</text>
</g>
<!-- Obbiettivi\n della\n cybersecurity&#45;&gt;Confidentiality -->
<g id="edge3" class="edge">
<title>Obbiettivi\n della\n cybersecurity&#45;&gt;Confidentiality</title>
<path fill="none" stroke="#5a5a5a" stroke-width="1.2" d="M217.25,-215.52C217.25,-207.26 217.25,-198.47 217.25,-190.5"/>
<polygon fill="#5a5a5a" stroke="#5a5a5a" stroke-width="1.2" points="220.75,-190.25 217.25,-180.25 213.75,-190.25 220.75,-190.25"/>
</g>
<!-- Accountability -->
<g id="node5" class="node">
<title>Accountability</title>
<ellipse fill="#a3c4f3" stroke="#ffffff" cx="360.25" cy="-162" rx="62.35" ry="18"/>
<text text-anchor="middle" x="360.25" y="-158.9" font-family="Helvetica,sans-Serif" font-size="12.00">Accountability</text>
</g>
<!-- Obbiettivi\n della\n cybersecurity&#45;&gt;Accountability -->
<g id="edge4" class="edge">
<title>Obbiettivi\n della\n cybersecurity&#45;&gt;Accountability</title>
<path fill="none" stroke="#5a5a5a" stroke-width="1.2" d="M260.15,-222.66C281.13,-210.16 306.03,-195.31 325.75,-183.56"/>
<polygon fill="#5a5a5a" stroke="#5a5a5a" stroke-width="1.2" points="327.62,-186.52 334.42,-178.4 324.03,-180.51 327.62,-186.52"/>
</g>
<!-- Integrity -->
<g id="node6" class="node">
<title>Integrity</title>
<ellipse fill="#a3c4f3" stroke="#ffffff" cx="481.25" cy="-162" rx="41.49" ry="18"/>
<text text-anchor="middle" x="481.25" y="-158.9" font-family="Helvetica,sans-Serif" font-size="12.00">Integrity</text>
</g>
<!-- Obbiettivi\n della\n cybersecurity&#45;&gt;Integrity -->
<g id="edge5" class="edge">
<title>Obbiettivi\n della\n cybersecurity&#45;&gt;Integrity</title>
<path fill="none" stroke="#5a5a5a" stroke-width="1.2" d="M275.93,-229.85C318.99,-216.29 378.84,-197.26 431.25,-180 434.16,-179.04 437.16,-178.04 440.18,-177.03"/>
<polygon fill="#5a5a5a" stroke="#5a5a5a" stroke-width="1.2" points="441.44,-180.3 449.8,-173.79 439.21,-173.67 441.44,-180.3"/>
</g>
<!-- Data authenticity -->
<g id="node7" class="node">
<title>Data authenticity</title>
<ellipse fill="#a3c4f3" stroke="#ffffff" cx="194.25" cy="-18" rx="73.01" ry="18"/>
<text text-anchor="middle" x="194.25" y="-14.9" font-family="Helvetica,sans-Serif" font-size="12.00">Data authenticity</text>
</g>
<!-- Authenticity&#45;&gt;Data authenticity -->
<g id="edge6" class="edge">
<title>Authenticity&#45;&gt;Data authenticity</title>
<path fill="none" stroke="#5a5a5a" stroke-width="1.2" d="M90.71,-74.33C109.66,-64.2 135.12,-50.6 156.04,-39.41"/>
<polygon fill="#5a5a5a" stroke="#5a5a5a" stroke-width="1.2" points="157.83,-42.43 165,-34.63 154.53,-36.25 157.83,-42.43"/>
</g>
<!-- Data confidentiality -->
<g id="node8" class="node">
<title>Data confidentiality</title>
<ellipse fill="#a3c4f3" stroke="#ffffff" cx="217.25" cy="-90" rx="81.75" ry="18"/>
<text text-anchor="middle" x="217.25" y="-86.9" font-family="Helvetica,sans-Serif" font-size="12.00">Data confidentiality</text>
</g>
<!-- Confidentiality&#45;&gt;Data confidentiality -->
<g id="edge7" class="edge">
<title>Confidentiality&#45;&gt;Data confidentiality</title>
<path fill="none" stroke="#5a5a5a" stroke-width="1.2" d="M217.25,-143.7C217.25,-135.98 217.25,-126.71 217.25,-118.11"/>
<polygon fill="#5a5a5a" stroke="#5a5a5a" stroke-width="1.2" points="220.75,-118.1 217.25,-108.1 213.75,-118.1 220.75,-118.1"/>
</g>
<!-- Privacy -->
<g id="node9" class="node">
<title>Privacy</title>
<ellipse fill="#a3c4f3" stroke="#ffffff" cx="353.25" cy="-90" rx="36.14" ry="18"/>
<text text-anchor="middle" x="353.25" y="-86.9" font-family="Helvetica,sans-Serif" font-size="12.00">Privacy</text>
</g>
<!-- Confidentiality&#45;&gt;Privacy -->
<g id="edge8" class="edge">
<title>Confidentiality&#45;&gt;Privacy</title>
<path fill="none" stroke="#5a5a5a" stroke-width="1.2" d="M246.42,-145.98C267.87,-134.95 297.06,-119.92 319.51,-108.37"/>
<polygon fill="#5a5a5a" stroke="#5a5a5a" stroke-width="1.2" points="321.38,-111.34 328.67,-103.65 318.18,-105.11 321.38,-111.34"/>
</g>
<!-- Data integrity -->
<g id="node10" class="node">
<title>Data integrity</title>
<ellipse fill="#a3c4f3" stroke="#ffffff" cx="468.25" cy="-90" rx="60.16" ry="18"/>
<text text-anchor="middle" x="468.25" y="-86.9" font-family="Helvetica,sans-Serif" font-size="12.00">Data integrity</text>
</g>
<!-- Integrity&#45;&gt;Data integrity -->
<g id="edge9" class="edge">
<title>Integrity&#45;&gt;Data integrity</title>
<path fill="none" stroke="#5a5a5a" stroke-width="1.2" d="M478.03,-143.7C476.6,-135.98 474.88,-126.71 473.28,-118.11"/>
<polygon fill="#5a5a5a" stroke="#5a5a5a" stroke-width="1.2" points="476.69,-117.3 471.42,-108.1 469.81,-118.58 476.69,-117.3"/>
</g>
<!-- System integrity -->
<g id="node11" class="node">
<title>System integrity</title>
<ellipse fill="#a3c4f3" stroke="#ffffff" cx="617.25" cy="-90" rx="70.35" ry="18"/>
<text text-anchor="middle" x="617.25" y="-86.9" font-family="Helvetica,sans-Serif" font-size="12.00">System integrity</text>
</g>
<!-- Integrity&#45;&gt;System integrity -->
<g id="edge10" class="edge">
<title>Integrity&#45;&gt;System integrity</title>
<path fill="none" stroke="#5a5a5a" stroke-width="1.2" d="M506.83,-147.83C526.85,-137.53 555.03,-123.02 577.91,-111.25"/>
<polygon fill="#5a5a5a" stroke="#5a5a5a" stroke-width="1.2" points="579.74,-114.24 587.03,-106.55 576.54,-108.02 579.74,-114.24"/>
</g>
<!-- Data integrity&#45;&gt;Data authenticity -->
<g id="edge12" class="edge">
<title>Data integrity&#45;&gt;Data authenticity</title>
<path fill="none" stroke="#5a5a5a" stroke-width="1.2" d="M423.92,-77.68C377.49,-65.81 304.32,-47.12 253.08,-34.03"/>
<polygon fill="#5a5a5a" stroke="#5a5a5a" stroke-width="1.2" points="253.69,-30.57 243.14,-31.49 251.96,-37.36 253.69,-30.57"/>
</g>
<!-- Non ripudio -->
<g id="node12" class="node">
<title>Non ripudio</title>
<ellipse fill="#a3c4f3" stroke="#ffffff" cx="468.25" cy="-18" rx="52.88" ry="18"/>
<text text-anchor="middle" x="468.25" y="-14.9" font-family="Helvetica,sans-Serif" font-size="12.00">Non ripudio</text>
</g>
<!-- Data integrity&#45;&gt;Non ripudio -->
<g id="edge11" class="edge">
<title>Data integrity&#45;&gt;Non ripudio</title>
<path fill="none" stroke="#5a5a5a" stroke-width="1.2" d="M468.25,-71.7C468.25,-63.98 468.25,-54.71 468.25,-46.11"/>
<polygon fill="#5a5a5a" stroke="#5a5a5a" stroke-width="1.2" points="471.75,-46.1 468.25,-36.1 464.75,-46.1 471.75,-46.1"/>
</g>
</g>
</svg>
